<?xml version="1.0" encoding="utf-8"?>
<!-- Generator: $$$/GeneralStr/196=Adobe Illustrator 27.6.0, SVG Export Plug-In . SVG Version: 6.00 Build 0)  -->
<svg version="1.1" id="Calque_1" xmlns="http://www.w3.org/2000/svg" xmlns:xlink="http://www.w3.org/1999/xlink" x="0px" y="0px"
	 viewBox="0 0 609.4 283.5" style="enable-background:new 0 0 609.4 283.5;" xml:space="preserve">
<style type="text/css">
	.st0{fill:#1D1D1B;}
	.st1{clip-path:url(#SVGID_00000096054217054670788610000011292422744086056856_);fill:#1D1D1B;}
	.st2{clip-path:url(#SVGID_00000078735763941899420600000004908608738078117780_);fill:#1D1D1B;}
	.st3{clip-path:url(#SVGID_00000071526703727388547680000010857287347638854794_);fill:#1D1D1B;}
	.st4{clip-path:url(#SVGID_00000134248599640515725420000000345669767363584173_);fill:#CD1719;}
</style>
<polygon class="st0" points="333.5,83.8 333.6,83.8 331.1,94.1 327.8,108.2 327.6,107.8 321.6,132.1 322.3,134.6 335.7,134.6 
	352.4,61.4 338.7,61.4 "/>
<polygon class="st0" points="323.9,94.8 314.4,61.4 303.2,61.4 289.8,108.2 279.2,61.4 265.5,61.4 282.3,134.6 295.3,134.6 
	308.7,87.3 317.9,119.2 "/>
<g>
	<defs>
		<rect id="SVGID_1_" x="39.3" y="16.6" width="541.4" height="224.1"/>
	</defs>
	<clipPath id="SVGID_00000160873191823477046970000011123225957869243835_">
		<use xlink:href="#SVGID_1_"  style="overflow:visible;"/>
	</clipPath>
	<path style="clip-path:url(#SVGID_00000160873191823477046970000011123225957869243835_);fill:#1D1D1B;" d="M493.1,115.7
		c-4.7,4.8-10.3,7.2-16.7,7.2c-5.8,0-10.9-1.8-15.4-5.5c-5.9-4.8-8.9-11.3-8.9-19.5c0-7.2,2.3-13.1,6.8-17.8
		c4.5-4.8,10.2-7.2,17-7.2c6.8,0,12.5,2.4,17.1,7.2c4.8,5,7.2,10.9,7.2,17.8C500.2,105.1,497.9,111,493.1,115.7 M476.3,59.2
		c-6.8,0-13.2,1.7-19.2,5.2c-6,3.5-10.6,8.1-13.9,14c-3.4,5.8-5.2,12.3-5.2,19.5c0,10.2,3.6,19.2,10.9,27
		c7.3,7.5,16.4,11.3,27.4,11.3c10.6,0,19.6-3.6,27-10.9c7.3-7.3,10.9-16.4,10.9-27.3c0-10.6-3.8-19.7-11.3-27.4
		C495.5,63,486.6,59.2,476.3,59.2"/>
	<path style="clip-path:url(#SVGID_00000160873191823477046970000011123225957869243835_);fill:#1D1D1B;" d="M576,78
		c-3.5-6-7.8-10.4-13-13c-5.1-2.7-13-4.1-23.6-4.1h-16.7v73.5h13.8V75.3h0.2v-0.7h4.8c16.9,0,25.3,8,25.3,23.9
		c0,5.1-0.9,9.3-2.7,12.6c-1.8,3.6-4.1,6.1-6.8,7.5c-2.8,1.4-7.5,2-14,2v13.7c7.6-0.1,13-0.7,16.3-1.7c3.9-1.3,7.4-3.5,10.6-6.5
		c3.5-3.2,6.1-7.2,7.8-11.9c1.8-4.7,2.7-9.9,2.7-15.4C580.8,90.6,579.2,83.7,576,78"/>
	<path style="clip-path:url(#SVGID_00000160873191823477046970000011123225957869243835_);fill:#1D1D1B;" d="M408.4,115.7
		c-4.7,4.8-10.3,7.2-16.7,7.2c-5.8,0-10.9-1.8-15.4-5.5c-5.9-4.8-8.9-11.3-8.9-19.5c0-7.2,2.3-13.1,6.8-17.8
		c4.5-4.8,10.2-7.2,17.1-7.2c6.8,0,12.5,2.4,17.1,7.2c4.8,5,7.2,10.9,7.2,17.8C415.6,105.1,413.2,111,408.4,115.7 M391.7,59.2
		c-6.8,0-13.2,1.7-19.2,5.2c-6,3.5-10.6,8.1-13.9,14c-3.4,5.8-5.2,12.3-5.2,19.5c0,10.2,3.6,19.2,10.9,27
		c7.3,7.5,16.4,11.3,27.4,11.3c10.6,0,19.6-3.6,27-10.9c7.3-7.3,10.9-16.4,10.9-27.3c0-10.6-3.8-19.7-11.3-27.4
		C410.8,63,402,59.2,391.7,59.2"/>
	<path style="clip-path:url(#SVGID_00000160873191823477046970000011123225957869243835_);fill:#1D1D1B;" d="M375,171
		c-1.4,1.4-3.1,2.2-4.9,2.2h-5.6v-14.2h5.6c1.9,0,3.6,0.7,4.9,2c1.4,1.3,2.1,3,2.1,5C377.1,167.9,376.4,169.6,375,171 M371,149.6
		h-16.1v50h9.6v-17.1h3.3l9.1,17.1h10.2l-9.8-18.4c6.5-3.2,9.8-8.2,9.8-15v-0.5c0-4.5-1.6-8.3-4.7-11.4
		C379.2,151.2,375.4,149.6,371,149.6"/>
</g>
<polygon class="st0" points="327.2,171.7 330.4,179.9 316.9,179.9 323.7,162.6 328.6,150 328.4,149.3 318.8,149.3 299.4,199.5 
	309.2,199.5 313.4,189.2 333.9,189.2 337.7,199.5 347.7,199.5 332.1,159.1 "/>
<g>
	<defs>
		<rect id="SVGID_00000157273202098789477770000014789688236484845459_" x="39.3" y="16.6" width="541.4" height="224.1"/>
	</defs>
	<clipPath id="SVGID_00000109741546611875238740000016265652896239541662_">
		<use xlink:href="#SVGID_00000157273202098789477770000014789688236484845459_"  style="overflow:visible;"/>
	</clipPath>
	<path style="clip-path:url(#SVGID_00000109741546611875238740000016265652896239541662_);fill:#1D1D1B;" d="M290.4,170.8
		c-1.3,1.3-3,2-5,2h-5.6v-14.2h5.6c2,0,3.6,0.7,5,2.1c1.3,1.4,2,3.1,2,5.1C292.4,167.9,291.8,169.5,290.4,170.8 M302.7,165.4
		c0-4.4-1.6-8.2-4.9-11.4c-3.2-3.2-7-4.7-11.5-4.7h-16.1v50.2h9.6v-17.3h6.5c4.4,0,8.3-1.6,11.5-4.7c3.2-3.2,4.9-7,4.9-11.4V165.4z"
		/>
</g>
<polygon class="st0" points="391.9,158.9 400.8,158.9 400.8,199.6 410.6,199.6 410.6,158.9 419.7,158.9 419.7,149.6 391.9,149.6 "/>
<polygon class="st0" points="457.5,182.4 436,149.3 426.9,149.3 426.9,199.5 436.2,199.5 436.2,166.6 457.9,199.5 467.1,199.5 
	467.1,149.3 457.5,149.3 "/>
<g>
	<defs>
		<rect id="SVGID_00000132069553007871043320000009324106937339783555_" x="39.3" y="16.6" width="541.4" height="224.1"/>
	</defs>
	<clipPath id="SVGID_00000063618648502040279590000017064093876245656972_">
		<use xlink:href="#SVGID_00000132069553007871043320000009324106937339783555_"  style="overflow:visible;"/>
	</clipPath>
	<path style="clip-path:url(#SVGID_00000063618648502040279590000017064093876245656972_);fill:#1D1D1B;" d="M572.1,175.3
		c-0.2-0.1-0.4-0.3-0.7-0.6c-0.3-0.2-0.6-0.5-1-0.9c-0.6-0.5-1.3-1.2-2.1-1.9c-0.8-0.7-1.8-1.6-2.9-2.5c-1.9-1.7-3.4-3-4.6-4
		c-1.2-1-2-1.8-2.5-2.3c-0.5-0.8-0.7-1.6-0.7-2.3c0-1,0.4-1.7,1.2-2.3c0.6-0.6,1.6-0.9,3-0.9c2.6,0,5.1,1.7,7.5,5.1l7.3-6.3
		c-2.8-3.1-5.3-5.2-7.5-6.3c-2.3-1.2-4.7-1.9-7.3-1.9c-3.7,0-7,1.2-9.8,3.7c-2.7,2.6-4,5.6-4,9.1c0,2.3,0.9,4.8,2.6,7.2
		c1.6,2.4,5.1,5.8,10.5,10.3c2.8,2.3,4.6,4,5.6,5.1c0.8,1.2,1.1,2.3,1.1,3.5c0,1.2-0.5,2.3-1.6,3.3c-1.2,0.9-2.6,1.4-4.2,1.4
		c-3,0-5.7-2.3-8.2-6.8l-8.2,4.9c3.7,7.3,9,11,16.1,11c4.7,0,8.4-1.3,11.2-4c2.8-2.6,4.2-6,4.2-10.3
		C577.3,182.4,575.6,178.6,572.1,175.3"/>
	<path style="clip-path:url(#SVGID_00000063618648502040279590000017064093876245656972_);fill:#1D1D1B;" d="M528.8,171
		c-1.4,1.4-3.1,2.2-4.9,2.2h-5.6v-14.2h5.6c1.9,0,3.6,0.7,4.9,2c1.4,1.3,2.1,3,2.1,5C530.9,167.9,530.2,169.6,528.8,171
		 M524.9,149.6h-16.1v50h9.6v-17.1h3.3l9.1,17.1H541l-9.8-18.4c6.5-3.2,9.8-8.2,9.8-15v-0.5c0-4.5-1.6-8.3-4.7-11.4
		C533.1,151.2,529.3,149.6,524.9,149.6"/>
</g>
<rect x="490.4" y="169.8" class="st0" width="11.2" height="9.1"/>
<polygon class="st0" points="474.2,199.5 501.6,199.5 501.6,190.1 483.6,190.1 483.6,178.9 483.6,178.9 483.6,169.8 483.6,169.8 
	483.6,158.6 501.6,158.6 501.6,149.3 474.2,149.3 "/>
<g>
	<defs>
		<rect id="SVGID_00000072986703129895998760000005936936493723490952_" x="39.3" y="16.6" width="541.4" height="224.1"/>
	</defs>
	<clipPath id="SVGID_00000000938219358177784170000015421317155750668178_">
		<use xlink:href="#SVGID_00000072986703129895998760000005936936493723490952_"  style="overflow:visible;"/>
	</clipPath>
	<path style="clip-path:url(#SVGID_00000000938219358177784170000015421317155750668178_);fill:#CD1719;" d="M208,114.7
		c0,7.7-2.8,14.3-8.4,19.8c-5.6,5.5-12.2,8.2-19.9,8.2h-11.4v30.1h-24.1l0,55c-1.8,0-3.6-0.3-4.8-1l-82.5-45.3
		c-2.3-1.3-4.6-5.2-4.6-7.9v-90c0-2.7,2.3-6.6,4.6-7.9l82.5-45.3c1.2-0.7,3.1-1,4.9-1l0,57l-5.9,25.8l0.2,0l-3,12.3l-3.8,16.9
		l-0.1-0.5l-7.1,29l0.8,2.9h15.6l19.5-87.4h0v0h19.3c7.7,0,14.3,2.8,19.9,8.3c5.6,5.5,8.4,12.1,8.4,19.8V114.7z M237.8,64.5
		l-82.5-45.3c-6.3-3.5-15.8-3.5-22.1,0L50.6,64.5c-6.4,3.5-11.3,11.8-11.3,19.1v90c0,7.4,4.9,15.6,11.3,19.1l82.5,45.3
		c3.2,1.7,7.1,2.6,11.1,2.6s7.9-0.9,11.1-2.6l82.5-45.3c6.4-3.5,11.3-11.7,11.3-19.1V83.6C249.1,76.2,244.2,68.1,237.8,64.5
		 M116.2,85.4H103l-15.6,56l-12.3-56h-16l19.6,87.4h15.1l15.6-56.4l10.7,38.1l7.1-29.2L116.2,85.4z M178,101.7h-9.7v24.8h9.7
		c3.4,0,6.3-1.2,8.6-3.5c2.3-2.3,3.5-5.2,3.5-8.6c0-3.5-1.2-6.5-3.5-9C184.3,102.9,181.4,101.7,178,101.7"/>
</g>
</svg>
